<svg width="113" height="34" viewBox="0 0 113 34" fill="none" xmlns="http://www.w3.org/2000/svg">
<path d="M15.5505 25.5985L14.6902 15.798L6.79739 16.4339L5.89963 25.1496L2.15897 25.5237L0.0267871 0.685676L8.5555 0.124577L7.13405 13.5536L14.5032 13.6284L13.4184 0.76049L21.9471 0.199389L19.2912 25.2244L15.5505 25.5985ZM28.913 25.8604C28.7634 25.8604 28.6013 25.8604 28.4267 25.8604C28.2771 25.8604 28.1275 25.8479 27.9778 25.8229C27.1299 25.2494 26.4442 24.4015 25.9205 23.2793C25.4217 22.1322 25.1723 20.9476 25.1723 19.7257C25.1723 18.7032 25.4092 17.8553 25.8831 17.182C26.3569 16.5087 27.2048 16.0099 28.4267 15.6857C29.6736 15.3366 31.4192 15.1621 33.6636 15.1621C34.2123 15.1621 34.7983 15.187 35.4218 15.2369C36.0452 15.2618 36.7061 15.3241 37.4043 15.4239L37.3295 14.601C37.2297 13.5785 36.7435 12.7805 35.8706 12.2069C35.0228 11.6334 34.0128 11.3466 32.8407 11.3466C32.1923 11.3466 31.5065 11.4463 30.7833 11.6458C30.0851 11.8453 29.3868 12.157 28.6886 12.581L27.0427 7.15703C27.8656 6.8079 28.913 6.50864 30.1848 6.25927C31.4816 5.98495 32.8158 5.84779 34.1873 5.84779C36.0078 5.84779 37.5913 6.10964 38.938 6.63333C40.3096 7.15703 41.3694 7.97997 42.1175 9.10217C42.8906 10.1994 43.2772 11.6583 43.2772 13.4788C43.2772 13.7032 43.2647 13.965 43.2397 14.2643C43.2397 14.5635 43.2273 14.7755 43.2023 14.9002L42.155 25.2244L38.4517 25.5611L37.8906 20.1371H37.5913C36.7684 21.8828 35.6088 23.2793 34.1125 24.3267C32.6412 25.3491 30.908 25.8604 28.913 25.8604ZM31.7185 21.6708C32.2671 21.5711 32.9155 21.3965 33.6636 21.1471C34.4367 20.8728 35.1724 20.4239 35.8706 19.8005C36.5938 19.1521 37.1549 18.2169 37.5539 16.995C37.2297 16.995 36.9056 16.995 36.5814 16.995C36.2572 16.97 35.9205 16.9576 35.5714 16.9576C34.7983 16.9576 34.1001 16.97 33.4766 16.995C32.8532 17.0199 32.2048 17.0947 31.5315 17.2194C31.4317 17.4439 31.3195 17.7182 31.1948 18.0424C31.0701 18.3666 31.0078 18.778 31.0078 19.2768C31.0078 19.7007 31.0826 20.1621 31.2322 20.6608C31.3818 21.1346 31.5439 21.4713 31.7185 21.6708ZM48.4671 33.1172L47.3075 7.0074L55.3126 5.77298L54.4896 12.3566H54.7515C55.724 10.2618 56.8462 8.59095 58.118 7.34406C59.3899 6.07223 60.724 5.43632 62.1206 5.43632C62.5944 5.43632 63.0557 5.51113 63.5046 5.66076C64.1031 6.38396 64.6268 7.35653 65.0757 8.57848C65.5495 9.80043 65.9111 11.1595 66.1605 12.6558C66.4099 14.1521 66.5345 15.6857 66.5345 17.2568C66.5345 19.1521 66.2976 20.7481 65.8238 22.0449C65.35 23.3167 64.5395 24.2768 63.3924 24.9252C62.2702 25.5736 60.724 25.8978 58.754 25.8978C57.6567 25.8978 56.6093 25.7731 55.6118 25.5237C54.6392 25.2993 53.7539 25 52.9559 24.6259L51.946 32.7806L48.4671 33.1172ZM57.2951 23.5785C58.2178 23.5785 59.0033 23.404 59.6517 23.0549C59.7764 22.3815 59.9011 21.5711 60.0258 20.6234C60.1505 19.6758 60.2128 18.4414 60.2128 16.9202C60.2128 16.0723 60.1754 15.1745 60.1006 14.2269C60.0258 13.2792 59.926 12.4064 59.8013 11.6084C59.7016 10.8104 59.5894 10.2368 59.4647 9.88771C59.0158 10.0623 58.5046 10.3117 57.931 10.6358C57.3574 10.96 56.7714 11.5211 56.1729 12.3191C55.5993 13.1172 55.0507 14.3017 54.527 15.8728C54.0283 17.4439 53.6043 19.5636 53.2552 22.2319C53.8288 22.6808 54.4647 23.0174 55.1629 23.2419C55.8861 23.4663 56.5968 23.5785 57.2951 23.5785ZM72.5355 33.1172L71.3759 7.0074L79.3809 5.77298L78.558 12.3566H78.8198C79.7924 10.2618 80.9146 8.59095 82.1864 7.34406C83.4582 6.07223 84.7924 5.43632 86.1889 5.43632C86.6627 5.43632 87.1241 5.51113 87.573 5.66076C88.1715 6.38396 88.6952 7.35653 89.144 8.57848C89.6179 9.80043 89.9795 11.1595 90.2288 12.6558C90.4782 14.1521 90.6029 15.6857 90.6029 17.2568C90.6029 19.1521 90.366 20.7481 89.8922 22.0449C89.4184 23.3167 88.6079 24.2768 87.4607 24.9252C86.3385 25.5736 84.7924 25.8978 82.8223 25.8978C81.7251 25.8978 80.6777 25.7731 79.6802 25.5237C78.7076 25.2993 77.8223 25 77.0243 24.6259L76.0143 32.7806L72.5355 33.1172ZM81.3635 23.5785C82.2862 23.5785 83.0717 23.404 83.7201 23.0549C83.8448 22.3815 83.9695 21.5711 84.0941 20.6234C84.2188 19.6758 84.2812 18.4414 84.2812 16.9202C84.2812 16.0723 84.2438 15.1745 84.169 14.2269C84.0941 13.2792 83.9944 12.4064 83.8697 11.6084C83.7699 10.8104 83.6577 10.2368 83.533 9.88771C83.0842 10.0623 82.5729 10.3117 81.9994 10.6358C81.4258 10.96 80.8398 11.5211 80.2413 12.3191C79.6677 13.1172 79.1191 14.3017 78.5954 15.8728C78.0966 17.4439 77.6727 19.5636 77.3235 22.2319C77.8971 22.6808 78.533 23.0174 79.2313 23.2419C79.9545 23.4663 80.6652 23.5785 81.3635 23.5785ZM98.0627 32.9302C97.3395 32.9302 96.5914 32.7931 95.8183 32.5187C95.0702 32.2694 94.322 31.8454 93.5739 31.2469L94.6961 29.3392C95.5191 29.6384 96.3295 29.7881 97.1275 29.7881C98.2248 29.7881 99.1849 29.4763 100.008 28.8529C100.856 28.2294 101.392 27.2319 101.616 25.8604L93.8732 7.04481L101.878 5.81039L104.347 20.1745H104.646L109.472 5.92261L112.502 6.74555L104.384 27.1696C103.811 28.6409 103.212 29.7881 102.589 30.611C101.99 31.4589 101.33 32.0574 100.606 32.4065C99.8832 32.7556 99.0353 32.9302 98.0627 32.9302Z" fill="white"/>
</svg>
